<svg width="189" height="189" viewBox="0 0 189 189" fill="none" xmlns="http://www.w3.org/2000/svg">
<path d="M27.5625 54.0855C27.5625 53.0604 27.5625 52.5479 27.7652 52.1577C27.9359 51.829 28.204 51.5609 28.5327 51.3902C28.9229 51.1875 29.4354 51.1875 30.4605 51.1875H158.54C159.565 51.1875 160.077 51.1875 160.467 51.3902C160.796 51.5609 161.064 51.829 161.235 52.1577C161.438 52.5479 161.438 53.0604 161.438 54.0855V142.789C161.438 143.815 161.438 144.327 161.235 144.717C161.064 145.046 160.796 145.314 160.467 145.485C160.077 145.688 159.565 145.688 158.54 145.688H30.4605C29.4354 145.688 28.9229 145.688 28.5327 145.485C28.204 145.314 27.9359 145.046 27.7652 144.717C27.5625 144.327 27.5625 143.815 27.5625 142.79V54.0855Z" stroke="#222222"/>
<path d="M27.5625 82.6875L161.438 82.6875" stroke="#222222" stroke-linecap="round"/>
<circle cx="51.1875" cy="122.062" r="3.9375" fill="#222222"/>
</svg>
