<svg width="189" height="189" viewBox="0 0 189 189" fill="none" xmlns="http://www.w3.org/2000/svg">
<path d="M94.5 165.375V102.375M94.5 165.375L32.44 126.588C31.9805 126.3 31.7507 126.157 31.6254 125.931C31.5 125.704 31.5 125.433 31.5 124.892V63M94.5 165.375L126 145.688L156.56 126.588C157.02 126.3 157.249 126.157 157.375 125.931C157.5 125.704 157.5 125.433 157.5 124.892V63M94.5 102.375L31.5 63M94.5 102.375L157.5 63M31.5 63L93.44 24.2875C93.9555 23.9653 94.2132 23.8042 94.5 23.8042C94.7868 23.8042 95.0445 23.9653 95.56 24.2875L157.5 63" stroke="#33363F" stroke-width="2" stroke-linejoin="round"/>
<path d="M125 114.188C125 114.74 125.448 115.188 126 115.188C126.552 115.188 127 114.74 127 114.188H125ZM125.06 82.1L124.53 82.948L125.06 82.1ZM125.875 82.757L126.749 82.2722L125.875 82.757ZM62.47 44.1605L124.53 82.948L125.59 81.252L63.53 42.4645L62.47 44.1605ZM127 114.188V83.796H125V114.188H127ZM124.53 82.948C124.776 83.1016 124.9 83.1807 124.984 83.245C125.051 83.2964 125.027 83.2904 125 83.2417L126.749 82.2722C126.597 81.9973 126.395 81.8065 126.201 81.6577C126.024 81.5219 125.804 81.3856 125.59 81.252L124.53 82.948ZM127 83.796C127 83.5439 127.001 83.2851 126.98 83.0628C126.956 82.8194 126.902 82.5471 126.749 82.2722L125 83.2417C124.973 83.1931 124.981 83.1693 124.989 83.2534C124.999 83.3586 125 83.5062 125 83.796H127Z" fill="#33363F"/>
</svg>
